<?xml version="1.0" encoding="UTF-8" standalone="no"?>
<!-- Generated by graphviz version 2.43.0 (0)
 -->

<!-- Title: IFS Pages: 1 -->

<svg
   width="1628.5pt"
   height="948pt"
   viewBox="0 0 1628.0002 948"
   version="1.1"
   id="svg385"
   sodipodi:docname="ifs_architecture_v4_tight.svg"
   inkscape:version="1.1.2 (0a00cf5339, 2022-02-04)"
   xmlns:inkscape="http://www.inkscape.org/namespaces/inkscape"
   xmlns:sodipodi="http://sodipodi.sourceforge.net/DTD/sodipodi-0.dtd"
   xmlns="http://www.w3.org/2000/svg"
   xmlns:svg="http://www.w3.org/2000/svg">
  <defs
     id="defs389" />
  <sodipodi:namedview
     id="namedview387"
     pagecolor="#ffffff"
     bordercolor="#000000"
     borderopacity="0.25"
     inkscape:showpageshadow="2"
     inkscape:pageopacity="0.0"
     inkscape:pagecheckerboard="0"
     inkscape:deskcolor="#d1d1d1"
     inkscape:document-units="pt"
     inkscape:pageshadow="2"
     showgrid="false"
     inkscape:zoom="0.43572714"
     inkscape:cx="1012.1013"
     inkscape:cy="626.53889"
     inkscape:window-width="1920"
     inkscape:window-height="1043"
     inkscape:window-x="0"
     inkscape:window-y="0"
     inkscape:window-maximized="1"
     inkscape:current-layer="svg385" />
  <g
     id="graph0"
     class="graph"
     transform="translate(17.75,930)"
     inkscape:export-filename="/home/grvc/Documents/GitHub/GRVC_beamer_presentation/GRVC_BEAMER_TEX_STUDIO/assets/web_app_diagram.png"
     inkscape:export-xdpi="600"
     inkscape:export-ydpi="600">
    <title
       id="title2">IFS</title>
    <polygon
       fill="#ffffff"
       stroke="transparent"
       points="1610.5,-930 1610.5,18 -18,18 -18,-930 "
       id="polygon4" />
    <text
       text-anchor="middle"
       x="796.25"
       y="-890.40002"
       font-family="Helvetica, sans-Serif"
       font-size="22px"
       id="text6">Information Fusion System Architecture</text>
    <g
       id="clust1"
       class="cluster">
      <title
         id="title8">cluster_sources</title>
      <path
         fill="#f8fafc"
         stroke="#cbd5e1"
         stroke-width="1.2"
         d="m 23.5,-99 c 0,0 167,0 167,0 6,0 12,-6 12,-12 0,0 0,-749 0,-749 0,-6 -6,-12 -12,-12 0,0 -167,0 -167,0 -6,0 -12,6 -12,12 0,0 0,749 0,749 0,6 6,12 12,12"
         id="path10" />
      <text
         text-anchor="middle"
         x="107"
         y="-856.79999"
         font-family="Helvetica, sans-Serif"
         font-size="14px"
         id="text12">Data Sources</text>
    </g>
    <g
       id="clust3"
       class="cluster">
      <title
         id="title15">cluster_web</title>
      <path
         fill="#f1f5f9"
         stroke="#cbd5e1"
         stroke-width="1.2"
         d="m 257.5,-375 c 0,0 1098,0 1098,0 6,0 12,-6 12,-12 0,0 0,-128 0,-128 0,-6 -6,-12 -12,-12 0,0 -1098,0 -1098,0 -6,0 -12,6 -12,12 0,0 0,128 0,128 0,6 6,12 12,12"
         id="path17" />
      <text
         text-anchor="middle"
         x="806.5"
         y="-511.79999"
         font-family="Helvetica, sans-Serif"
         font-size="14px"
         id="text19">Web App</text>
    </g>
    <g
       id="clust5"
       class="cluster">
      <title
         id="title22">cluster_storage</title>
      <path
         fill="#f8fafc"
         stroke="#cbd5e1"
         stroke-width="1.2"
         d="m 1410.5,-387 c 0,0 162,0 162,0 6,0 12,-6 12,-12 0,0 0,-127 0,-127 0,-6 -6,-12 -12,-12 0,0 -162,0 -162,0 -6,0 -12,6 -12,12 0,0 0,127 0,127 0,6 6,12 12,12"
         id="path24" />
      <text
         text-anchor="middle"
         x="1491.5"
         y="-522.79999"
         font-family="Helvetica, sans-Serif"
         font-size="14px"
         id="text26">Storage &amp;</text>
      <text
         text-anchor="middle"
         x="1491.5"
         y="-507.79999"
         font-family="Helvetica, sans-Serif"
         font-size="14px"
         id="text28">Context Broker</text>
    </g>
    <g
       id="clust7"
       class="cluster">
      <title
         id="title31">cluster_orch</title>
      <path
         fill="#f8fafc"
         stroke="#cbd5e1"
         stroke-width="1.2"
         d="m 12,-8 c 0,0 191,0 191,0 6,0 12,-6 12,-12 0,0 0,-59 0,-59 0,-6 -6,-12 -12,-12 0,0 -191,0 -191,0 -6,0 -12,6 -12,12 0,0 0,59 0,59 0,6 6,12 12,12"
         id="path33" />
      <text
         text-anchor="middle"
         x="107.5"
         y="-75.800003"
         font-family="Helvetica, sans-Serif"
         font-size="14px"
         id="text35">Orchestration &amp; Deployment</text>
    </g>
    <!-- flood_seg -->
    <g
       id="node1"
       class="node">
      <title
         id="title38">flood_seg</title>
      <path
         fill="#eef2ff"
         stroke="#0f172a"
         stroke-width="1.4"
         d="m 168.5,-841 c 0,0 -123,0 -123,0 -6,0 -12,6 -12,12 0,0 0,20 0,20 0,6 6,12 12,12 0,0 123,0 123,0 6,0 12,-6 12,-12 0,0 0,-20 0,-20 0,-6 -6,-12 -12,-12"
         id="path40" />
      <text
         text-anchor="middle"
         x="107"
         y="-822.40002"
         font-family="Helvetica, sans-Serif"
         font-size="12px"
         id="text42">TFA-tech-06</text>
      <text
         text-anchor="middle"
         x="107"
         y="-809.40002"
         font-family="Helvetica, sans-Serif"
         font-size="12px"
         id="text44">Flood Segmentation</text>
    </g>
    <!-- notif -->
    <g
       id="node13"
       class="node">
      <title
         id="title47">notif</title>
      <path
         fill="#e0e7ff"
         stroke="#0f172a"
         stroke-width="1.4"
         d="m 409.5,-496 c 0,0 -129,0 -129,0 -6,0 -12,6 -12,12 0,0 0,20 0,20 0,6 6,12 12,12 0,0 129,0 129,0 6,0 12,-6 12,-12 0,0 0,-20 0,-20 0,-6 -6,-12 -12,-12"
         id="path49" />
      <text
         text-anchor="middle"
         x="345"
         y="-477.39999"
         font-family="Helvetica, sans-Serif"
         font-size="12px"
         id="text51">Notification Handler /</text>
      <text
         text-anchor="middle"
         x="345"
         y="-464.39999"
         font-family="Helvetica, sans-Serif"
         font-size="12px"
         id="text53">API Endpoint</text>
    </g>
    <!-- flood_seg&#45;&gt;notif -->
    <g
       id="edge10"
       class="edge">
      <title
         id="title56">flood_seg:e-&gt;notif:w</title>
      <path
         fill="none"
         stroke="#94a3b8"
         stroke-width="1.1"
         d="m 181,-819 c 0,0 215.5,0 215.5,0 0,0 0,189.49 0,284.5"
         id="path58" />
      <polygon
         fill="#94a3b8"
         stroke="#94a3b8"
         stroke-width="1.1"
         points="393.88,-534.5 399.13,-534.5 396.5,-527 "
         id="polygon60" />
    </g>
    <!-- eo_flood -->
    <g
       id="node2"
       class="node">
      <title
         id="title63">eo_flood</title>
      <path
         fill="#eef2ff"
         stroke="#0f172a"
         stroke-width="1.4"
         d="m 156,-772 c 0,0 -98,0 -98,0 -6,0 -12,6 -12,12 0,0 0,20 0,20 0,6 6,12 12,12 0,0 98,0 98,0 6,0 12,-6 12,-12 0,0 0,-20 0,-20 0,-6 -6,-12 -12,-12"
         id="path65" />
      <text
         text-anchor="middle"
         x="107"
         y="-753.40002"
         font-family="Helvetica, sans-Serif"
         font-size="12px"
         id="text67">TFA-tech-08</text>
      <text
         text-anchor="middle"
         x="107"
         y="-740.40002"
         font-family="Helvetica, sans-Serif"
         font-size="12px"
         id="text69">EO Flood Extent</text>
    </g>
    <!-- eo_flood&#45;&gt;notif -->
    <g
       id="edge11"
       class="edge">
      <title
         id="title72">eo_flood:e-&gt;notif:w</title>
      <path
         fill="none"
         stroke="#94a3b8"
         stroke-width="1.1"
         d="m 168,-750 c 0,0 202.5,0 202.5,0 0,0 0,136.85 0,215.15"
         id="path74" />
      <polygon
         fill="#94a3b8"
         stroke="#94a3b8"
         stroke-width="1.1"
         points="367.88,-534.5 373.13,-534.5 370.5,-527 "
         id="polygon76" />
    </g>
    <!-- eo_burn -->
    <g
       id="node3"
       class="node">
      <title
         id="title79">eo_burn</title>
      <path
         fill="#eef2ff"
         stroke="#0f172a"
         stroke-width="1.4"
         d="m 150.5,-703 c 0,0 -87,0 -87,0 -6,0 -12,6 -12,12 0,0 0,20 0,20 0,6 6,12 12,12 0,0 87,0 87,0 6,0 12,-6 12,-12 0,0 0,-20 0,-20 0,-6 -6,-12 -12,-12"
         id="path81" />
      <text
         text-anchor="middle"
         x="107"
         y="-684.40002"
         font-family="Helvetica, sans-Serif"
         font-size="12px"
         id="text83">TFA-tech-09</text>
      <text
         text-anchor="middle"
         x="107"
         y="-671.40002"
         font-family="Helvetica, sans-Serif"
         font-size="12px"
         id="text85">EO Burnt Area</text>
    </g>
    <!-- eo_burn&#45;&gt;notif -->
    <g
       id="edge12"
       class="edge">
      <title
         id="title88">eo_burn:e-&gt;notif:w</title>
      <path
         fill="none"
         stroke="#94a3b8"
         stroke-width="1.1"
         d="m 162,-681 c 0,0 183.5,0 183.5,0 0,0 0,87.13 0,146.22"
         id="path90" />
      <polygon
         fill="#94a3b8"
         stroke="#94a3b8"
         stroke-width="1.1"
         points="342.88,-534.5 348.13,-534.5 345.5,-527 "
         id="polygon92" />
    </g>
    <!-- burnt_seg -->
    <g
       id="node4"
       class="node">
      <title
         id="title95">burnt_seg</title>
      <path
         fill="#eef2ff"
         stroke="#0f172a"
         stroke-width="1.4"
         d="m 168.5,-634 c 0,0 -123,0 -123,0 -6,0 -12,6 -12,12 0,0 0,20 0,20 0,6 6,12 12,12 0,0 123,0 123,0 6,0 12,-6 12,-12 0,0 0,-20 0,-20 0,-6 -6,-12 -12,-12"
         id="path97" />
      <text
         text-anchor="middle"
         x="107"
         y="-615.40002"
         font-family="Helvetica, sans-Serif"
         font-size="12px"
         id="text99">TFA-tech-06</text>
      <text
         text-anchor="middle"
         x="107"
         y="-602.40002"
         font-family="Helvetica, sans-Serif"
         font-size="12px"
         id="text101">Burnt Segmentation</text>
    </g>
    <!-- burnt_seg&#45;&gt;notif -->
    <g
       id="edge13"
       class="edge">
      <title
         id="title104">burnt_seg:e-&gt;notif:w</title>
      <path
         fill="none"
         stroke="#94a3b8"
         stroke-width="1.1"
         d="m 181,-612 c 0,0 138.5,0 138.5,0 0,0 0,41.27 0,77.39"
         id="path106" />
      <polygon
         fill="#94a3b8"
         stroke="#94a3b8"
         stroke-width="1.1"
         points="316.88,-534.5 322.13,-534.5 319.5,-527 "
         id="polygon108" />
    </g>
    <!-- fire_seg -->
    <g
       id="node5"
       class="node">
      <title
         id="title111">fire_seg</title>
      <path
         fill="#eef2ff"
         stroke="#0f172a"
         stroke-width="1.4"
         d="m 162.5,-565 c 0,0 -111,0 -111,0 -6,0 -12,6 -12,12 0,0 0,20 0,20 0,6 6,12 12,12 0,0 111,0 111,0 6,0 12,-6 12,-12 0,0 0,-20 0,-20 0,-6 -6,-12 -12,-12"
         id="path113" />
      <text
         text-anchor="middle"
         x="107"
         y="-546.40002"
         font-family="Helvetica, sans-Serif"
         font-size="12px"
         id="text115">TFA-tech-06</text>
      <text
         text-anchor="middle"
         x="107"
         y="-533.40002"
         font-family="Helvetica, sans-Serif"
         font-size="12px"
         id="text117">Fire Segmentation</text>
    </g>
    <!-- fire_seg&#45;&gt;notif -->
    <g
       id="edge14"
       class="edge">
      <title
         id="title120">fire_seg:e-&gt;notif:w</title>
      <path
         fill="none"
         stroke="#94a3b8"
         stroke-width="1.1"
         d="m 175,-543 c 0,0 119.5,0 119.5,0 0,0 0,3.24 0,8.24"
         id="path122" />
      <polygon
         fill="#94a3b8"
         stroke="#94a3b8"
         stroke-width="1.1"
         points="291.88,-534.5 297.13,-534.5 294.5,-527 "
         id="polygon124" />
    </g>
    <!-- pv_detect -->
    <g
       id="node6"
       class="node">
      <title
         id="title127">pv_detect</title>
      <path
         fill="#eef2ff"
         stroke="#0f172a"
         stroke-width="1.4"
         d="m 182.5,-496 c 0,0 -151,0 -151,0 -6,0 -12,6 -12,12 0,0 0,20 0,20 0,6 6,12 12,12 0,0 151,0 151,0 6,0 12,-6 12,-12 0,0 0,-20 0,-20 0,-6 -6,-12 -12,-12"
         id="path129" />
      <text
         text-anchor="middle"
         x="107"
         y="-477.39999"
         font-family="Helvetica, sans-Serif"
         font-size="12px"
         id="text131">TFA-tech-05</text>
      <text
         text-anchor="middle"
         x="107"
         y="-464.39999"
         font-family="Helvetica, sans-Serif"
         font-size="12px"
         id="text133">Person/Vehicle Detection</text>
    </g>
    <!-- pv_detect&#45;&gt;notif -->
    <g
       id="edge15"
       class="edge">
      <title
         id="title136">pv_detect:e-&gt;notif:w</title>
      <path
         fill="none"
         stroke="#94a3b8"
         stroke-width="1.1"
         d="m 195,-490.5 c 0,0 23.86,0 42.78,0"
         id="path138" />
      <polygon
         fill="#94a3b8"
         stroke="#94a3b8"
         stroke-width="1.1"
         points="238,-487.88 238,-493.13 245.5,-490.5 "
         id="polygon140" />
    </g>
    <!-- hotspot -->
    <g
       id="node7"
       class="node">
      <title
         id="title143">hotspot</title>
      <path
         fill="#eef2ff"
         stroke="#0f172a"
         stroke-width="1.4"
         d="m 151.5,-427 c 0,0 -89,0 -89,0 -6,0 -12,6 -12,12 0,0 0,20 0,20 0,6 6,12 12,12 0,0 89,0 89,0 6,0 12,-6 12,-12 0,0 0,-20 0,-20 0,-6 -6,-12 -12,-12"
         id="path145" />
      <text
         text-anchor="middle"
         x="107"
         y="-408.39999"
         font-family="Helvetica, sans-Serif"
         font-size="12px"
         id="text147">TFA-tech-11</text>
      <text
         text-anchor="middle"
         x="107"
         y="-395.39999"
         font-family="Helvetica, sans-Serif"
         font-size="12px"
         id="text149">Hotspot Result</text>
    </g>
    <!-- hotspot&#45;&gt;notif -->
    <g
       id="edge16"
       class="edge">
      <title
         id="title152">hotspot:e-&gt;notif:w</title>
      <path
         fill="none"
         stroke="#94a3b8"
         stroke-width="1.1"
         d="m 164,-405 c 0,0 39.5,0 39.5,0 0,0 0,-80 0,-80 0,0 18.55,0 34.48,0"
         id="path154" />
      <polygon
         fill="#94a3b8"
         stroke="#94a3b8"
         stroke-width="1.1"
         points="238,-482.38 238,-487.63 245.5,-485 "
         id="polygon156" />
    </g>
    <!-- arrival -->
    <g
       id="node8"
       class="node">
      <title
         id="title159">arrival</title>
      <path
         fill="#eef2ff"
         stroke="#0f172a"
         stroke-width="1.4"
         d="m 173,-358 c 0,0 -132,0 -132,0 -6,0 -12,6 -12,12 0,0 0,20 0,20 0,6 6,12 12,12 0,0 132,0 132,0 6,0 12,-6 12,-12 0,0 0,-20 0,-20 0,-6 -6,-12 -12,-12"
         id="path161" />
      <text
         text-anchor="middle"
         x="107"
         y="-339.39999"
         font-family="Helvetica, sans-Serif"
         font-size="12px"
         id="text163">PDM-tech-01</text>
      <text
         text-anchor="middle"
         x="107"
         y="-326.39999"
         font-family="Helvetica, sans-Serif"
         font-size="12px"
         id="text165">Standard Arrival Time</text>
    </g>
    <!-- arrival&#45;&gt;notif -->
    <g
       id="edge17"
       class="edge">
      <title
         id="title168">arrival:e-&gt;notif:w</title>
      <path
         fill="none"
         stroke="#94a3b8"
         stroke-width="1.1"
         d="m 185,-336 c 0,0 26.5,0 26.5,0 0,0 0,-143.5 0,-143.5 0,0 13.44,0 26.24,0"
         id="path170" />
      <polygon
         fill="#94a3b8"
         stroke="#94a3b8"
         stroke-width="1.1"
         points="238,-476.88 238,-482.13 245.5,-479.5 "
         id="polygon172" />
    </g>
    <!-- alert_ngsi -->
    <g
       id="node9"
       class="node">
      <title
         id="title175">alert_ngsi</title>
      <path
         fill="#eef2ff"
         stroke="#0f172a"
         stroke-width="1.4"
         d="m 161.5,-289 c 0,0 -109,0 -109,0 -6,0 -12,6 -12,12 0,0 0,20 0,20 0,6 6,12 12,12 0,0 109,0 109,0 6,0 12,-6 12,-12 0,0 0,-20 0,-20 0,-6 -6,-12 -12,-12"
         id="path177" />
      <text
         text-anchor="middle"
         x="107"
         y="-270.39999"
         font-family="Helvetica, sans-Serif"
         font-size="12px"
         id="text179">Alert Notifications</text>
      <text
         text-anchor="middle"
         x="107"
         y="-257.39999"
         font-family="Helvetica, sans-Serif"
         font-size="12px"
         id="text181">(NGSI-LD)</text>
    </g>
    <!-- alert_ngsi&#45;&gt;notif -->
    <g
       id="edge18"
       class="edge">
      <title
         id="title184">alert_ngsi:e-&gt;notif:w</title>
      <path
         fill="none"
         stroke="#94a3b8"
         stroke-width="1.1"
         d="m 174,-267 c 0,0 46.5,0 46.5,0 0,0 0,-207 0,-207 0,0 8.33,0 17.39,0"
         id="path186" />
      <polygon
         fill="#94a3b8"
         stroke="#94a3b8"
         stroke-width="1.1"
         points="238,-471.38 238,-476.63 245.5,-474 "
         id="polygon188" />
    </g>
    <!-- flood_calc -->
    <g
       id="node10"
       class="node">
      <title
         id="title191">flood_calc</title>
      <path
         fill="#eef2ff"
         stroke="#0f172a"
         stroke-width="1.4"
         d="m 179,-220 c 0,0 -144,0 -144,0 -6,0 -12,6 -12,12 0,0 0,20 0,20 0,6 6,12 12,12 0,0 144,0 144,0 6,0 12,-6 12,-12 0,0 0,-20 0,-20 0,-6 -6,-12 -12,-12"
         id="path193" />
      <text
         text-anchor="middle"
         x="107"
         y="-201.39999"
         font-family="Helvetica, sans-Serif"
         font-size="12px"
         id="text195">PDM-tech-02</text>
      <text
         text-anchor="middle"
         x="107"
         y="-188.39999"
         font-family="Helvetica, sans-Serif"
         font-size="12px"
         id="text197">Flood Calculation Result</text>
    </g>
    <!-- flood_calc&#45;&gt;notif -->
    <g
       id="edge19"
       class="edge">
      <title
         id="title200">flood_calc:e-&gt;notif:w</title>
      <path
         fill="none"
         stroke="#94a3b8"
         stroke-width="1.1"
         d="m 191,-198 c 0,0 37.5,0 37.5,0 0,0 0,-270.5 0,-270.5 0,0 4.1,0 9.37,0"
         id="path202" />
      <polygon
         fill="#94a3b8"
         stroke="#94a3b8"
         stroke-width="1.1"
         points="238,-465.88 238,-471.13 245.5,-468.5 "
         id="polygon204" />
    </g>
    <!-- single_post -->
    <g
       id="node11"
       class="node">
      <title
         id="title207">single_post</title>
      <path
         fill="#eef2ff"
         stroke="#0f172a"
         stroke-width="1.4"
         d="m 160.5,-151 c 0,0 -107,0 -107,0 -6,0 -12,6 -12,12 0,0 0,20 0,20 0,6 6,12 12,12 0,0 107,0 107,0 6,0 12,-6 12,-12 0,0 0,-20 0,-20 0,-6 -6,-12 -12,-12"
         id="path209" />
      <text
         text-anchor="middle"
         x="107"
         y="-132.39999"
         font-family="Helvetica, sans-Serif"
         font-size="12px"
         id="text211">TFA-tech-11</text>
      <text
         text-anchor="middle"
         x="107"
         y="-119.4"
         font-family="Helvetica, sans-Serif"
         font-size="12px"
         id="text213">Single Post Result</text>
    </g>
    <!-- single_post&#45;&gt;notif -->
    <g
       id="edge20"
       class="edge">
      <title
         id="title216">single_post:e-&gt;notif:w</title>
      <path
         fill="none"
         stroke="#94a3b8"
         stroke-width="1.1"
         d="m 173,-129 c 0,0 64.5,0 64.5,0 0,0 0,-334 0,-334 0,0 0.06,0 0.16,0"
         id="path218" />
      <polygon
         fill="#94a3b8"
         stroke="#94a3b8"
         stroke-width="1.1"
         points="238,-460.38 238,-465.63 245.5,-463 "
         id="polygon220" />
    </g>
    <!-- socketio -->
    <g
       id="node12"
       class="node">
      <title
         id="title223">socketio</title>
      <path
         fill="#e0f2fe"
         stroke="#0f172a"
         stroke-width="1.4"
         d="m 424.5,-427 c 0,0 -159,0 -159,0 -6,0 -12,6 -12,12 0,0 0,20 0,20 0,6 6,12 12,12 0,0 159,0 159,0 6,0 12,-6 12,-12 0,0 0,-20 0,-20 0,-6 -6,-12 -12,-12"
         id="path225" />
      <text
         text-anchor="middle"
         x="345"
         y="-408.39999"
         font-family="Helvetica, sans-Serif"
         font-size="12px"
         id="text227">Socket.IO</text>
      <text
         text-anchor="middle"
         x="345"
         y="-395.39999"
         font-family="Helvetica, sans-Serif"
         font-size="12px"
         id="text229">Real-Time Communication</text>
    </g>
    <!-- socketio&#45;&gt;notif -->
    <!-- notif&#45;&gt;socketio -->
    <g
       id="edge7"
       class="edge">
      <title
         id="title232">notif-&gt;socketio</title>
      <path
         fill="none"
         stroke="#64748b"
         stroke-width="1.2"
         stroke-dasharray="5, 2"
         d="m 370.5,-451.79 c 0,0 0,17.12 0,17.12"
         id="path234" />
      <polygon
         fill="#64748b"
         stroke="#64748b"
         stroke-width="1.2"
         points="367.88,-434.67 373.13,-434.67 370.5,-427.17 "
         id="polygon236" />
    </g>
    <!-- cache -->
    <g
       id="node14"
       class="node">
      <title
         id="title239">cache</title>
      <path
         fill="#eef2ff"
         stroke="#0f172a"
         stroke-width="1.4"
         d="m 591.5,-496 c 0,0 -96,0 -96,0 -6,0 -12,6 -12,12 0,0 0,20 0,20 0,6 6,12 12,12 0,0 96,0 96,0 6,0 12,-6 12,-12 0,0 0,-20 0,-20 0,-6 -6,-12 -12,-12"
         id="path241" />
      <text
         text-anchor="middle"
         x="543.5"
         y="-477.39999"
         font-family="Helvetica, sans-Serif"
         font-size="12px"
         id="text243">Global Cache</text>
      <text
         text-anchor="middle"
         x="543.5"
         y="-464.39999"
         font-family="Helvetica, sans-Serif"
         font-size="12px"
         id="text245">&amp; Data Cleanup</text>
    </g>
    <!-- notif&#45;&gt;cache -->
    <g
       id="edge2"
       class="edge">
      <title
         id="title248">notif-&gt;cache</title>
      <path
         fill="none"
         stroke="#64748b"
         stroke-width="1.2"
         d="m 421.75,-481.33 c 0,0 54.02,0 54.02,0"
         id="path250" />
      <polygon
         fill="#64748b"
         stroke="#64748b"
         stroke-width="1.2"
         points="475.77,-478.71 475.77,-483.96 483.27,-481.33 "
         id="polygon252" />
    </g>
    <!-- cache&#45;&gt;socketio -->
    <g
       id="edge8"
       class="edge">
      <title
         id="title255">cache-&gt;socketio</title>
      <path
         fill="none"
         stroke="#64748b"
         stroke-width="1.2"
         stroke-dasharray="5, 2"
         d="m 483.5,-466.67 c -27.47,0 -54,0 -54,0 0,0 0,31.91 0,31.91"
         id="path257" />
      <polygon
         fill="#64748b"
         stroke="#64748b"
         stroke-width="1.2"
         points="426.88,-434.76 432.13,-434.76 429.5,-427.26 "
         id="polygon259" />
    </g>
    <!-- fusion -->
    <g
       id="node15"
       class="node">
      <title
         id="title262">fusion</title>
      <path
         fill="#dbeafe"
         stroke="#0f172a"
         stroke-width="1.8"
         d="m 820.5,-496 c 0,0 -158,0 -158,0 -6,0 -12,6 -12,12 0,0 0,20 0,20 0,6 6,12 12,12 0,0 158,0 158,0 6,0 12,-6 12,-12 0,0 0,-20 0,-20 0,-6 -6,-12 -12,-12"
         id="path264" />
      <text
         text-anchor="middle"
         x="741.5"
         y="-477.39999"
         font-family="Helvetica, sans-Serif"
         font-size="12px"
         id="text266">Information Fusion Engine</text>
      <text
         text-anchor="middle"
         x="741.5"
         y="-464.39999"
         font-family="Helvetica, sans-Serif"
         font-size="12px"
         id="text268">(PDM-tech-05)</text>
    </g>
    <!-- cache&#45;&gt;fusion -->
    <g
       id="edge3"
       class="edge">
      <title
         id="title271">cache-&gt;fusion</title>
      <path
         fill="none"
         stroke="#64748b"
         stroke-width="1.2"
         d="m 603.71,-474 c 0,0 38.97,0 38.97,0"
         id="path273" />
      <polygon
         fill="#64748b"
         stroke="#64748b"
         stroke-width="1.2"
         points="642.68,-471.38 642.68,-476.63 650.18,-474 "
         id="polygon275" />
    </g>
    <!-- pipelines -->
    <g
       id="node16"
       class="node">
      <title
         id="title278">pipelines</title>
      <path
         fill="#eef2ff"
         stroke="#0f172a"
         stroke-width="1.4"
         d="m 989.5,-496 c 0,0 -98,0 -98,0 -6,0 -12,6 -12,12 0,0 0,20 0,20 0,6 6,12 12,12 0,0 98,0 98,0 6,0 12,-6 12,-12 0,0 0,-20 0,-20 0,-6 -6,-12 -12,-12"
         id="path280" />
      <text
         text-anchor="middle"
         x="940.5"
         y="-477.39999"
         font-family="Helvetica, sans-Serif"
         font-size="12px"
         id="text282">Data Processing</text>
      <text
         text-anchor="middle"
         x="940.5"
         y="-464.39999"
         font-family="Helvetica, sans-Serif"
         font-size="12px"
         id="text284">Pipelines</text>
    </g>
    <!-- fusion&#45;&gt;pipelines -->
    <g
       id="edge4"
       class="edge">
      <title
         id="title287">fusion-&gt;pipelines</title>
      <path
         fill="none"
         stroke="#64748b"
         stroke-width="1.2"
         d="m 832.56,-474 c 0,0 39.32,0 39.32,0"
         id="path289" />
      <polygon
         fill="#64748b"
         stroke="#64748b"
         stroke-width="1.2"
         points="871.88,-471.38 871.88,-476.63 879.38,-474 "
         id="polygon291" />
    </g>
    <!-- occmap -->
    <g
       id="node17"
       class="node">
      <title
         id="title294">occmap</title>
      <path
         fill="#eef2ff"
         stroke="#0f172a"
         stroke-width="1.4"
         d="m 1187.5,-496 c 0,0 -127,0 -127,0 -6,0 -12,6 -12,12 0,0 0,20 0,20 0,6 6,12 12,12 0,0 127,0 127,0 6,0 12,-6 12,-12 0,0 0,-20 0,-20 0,-6 -6,-12 -12,-12"
         id="path296" />
      <text
         text-anchor="middle"
         x="1124"
         y="-477.39999"
         font-family="Helvetica, sans-Serif"
         font-size="12px"
         id="text298">Occupancy Grid Map</text>
      <text
         text-anchor="middle"
         x="1124"
         y="-464.39999"
         font-family="Helvetica, sans-Serif"
         font-size="12px"
         id="text300">Generator</text>
    </g>
    <!-- pipelines&#45;&gt;occmap -->
    <g
       id="edge5"
       class="edge">
      <title
         id="title303">pipelines-&gt;occmap</title>
      <path
         fill="none"
         stroke="#64748b"
         stroke-width="1.2"
         d="m 1001.6,-474 c 0,0 39.37,0 39.37,0"
         id="path305" />
      <polygon
         fill="#64748b"
         stroke="#64748b"
         stroke-width="1.2"
         points="1040.97,-471.38 1040.97,-476.63 1048.47,-474 "
         id="polygon307" />
    </g>
    <!-- updater -->
    <g
       id="node18"
       class="node">
      <title
         id="title310">updater</title>
      <path
         fill="#e0e7ff"
         stroke="#0f172a"
         stroke-width="1.4"
         d="m 1347.5,-496 c 0,0 -89,0 -89,0 -6,0 -12,6 -12,12 0,0 0,20 0,20 0,6 6,12 12,12 0,0 89,0 89,0 6,0 12,-6 12,-12 0,0 0,-20 0,-20 0,-6 -6,-12 -12,-12"
         id="path312" />
      <text
         text-anchor="middle"
         x="1303"
         y="-477.39999"
         font-family="Helvetica, sans-Serif"
         font-size="12px"
         id="text314">NGSI-LD</text>
      <text
         text-anchor="middle"
         x="1303"
         y="-464.39999"
         font-family="Helvetica, sans-Serif"
         font-size="12px"
         id="text316">Entity Updater</text>
    </g>
    <!-- occmap&#45;&gt;updater -->
    <g
       id="edge6"
       class="edge">
      <title
         id="title319">occmap-&gt;updater</title>
      <path
         fill="none"
         stroke="#64748b"
         stroke-width="1.2"
         d="m 1199.65,-474 c 0,0 39.21,0 39.21,0"
         id="path321" />
      <polygon
         fill="#64748b"
         stroke="#64748b"
         stroke-width="1.2"
         points="1238.86,-471.38 1238.86,-476.63 1246.36,-474 "
         id="polygon323" />
    </g>
    <!-- minio -->
    <g
       id="node20"
       class="node">
      <title
         id="title326">minio</title>
      <path
         fill="#fef3c7"
         stroke="#0f172a"
         stroke-width="1.4"
         d="m 1557,-431 c 0,0 -131,0 -131,0 -6,0 -12,6 -12,12 0,0 0,12 0,12 0,6 6,12 12,12 0,0 131,0 131,0 6,0 12,-6 12,-12 0,0 0,-12 0,-12 0,-6 -6,-12 -12,-12"
         id="path328" />
      <text
         text-anchor="middle"
         x="1491.5"
         y="-409.89999"
         font-family="Helvetica, sans-Serif"
         font-size="12px"
         id="text330">MinIO Object Storage</text>
    </g>
    <!-- occmap&#45;&gt;minio -->
    <g
       id="edge22"
       class="edge">
      <title
         id="title333">occmap-&gt;minio</title>
      <path
         fill="none"
         stroke="#475569"
         stroke-width="1.3"
         d="m 1124.5,-451.87 c 0,16.26 0,35.54 0,35.54 0,0 207.94,0 266.49,0"
         id="path335" />
      <polygon
         fill="#475569"
         stroke="#475569"
         stroke-width="1.3"
         points="1391,-413.71 1391,-418.96 1398.5,-416.33 "
         id="polygon337" />
    </g>
    <!-- broker -->
    <g
       id="node19"
       class="node">
      <title
         id="title340">broker</title>
      <path
         fill="#fef3c7"
         stroke="#0f172a"
         stroke-width="1.4"
         d="m 1564.5,-492 c 0,0 -146,0 -146,0 -6,0 -12,6 -12,12 0,0 0,12 0,12 0,6 6,12 12,12 0,0 146,0 146,0 6,0 12,-6 12,-12 0,0 0,-12 0,-12 0,-6 -6,-12 -12,-12"
         id="path342" />
      <text
         text-anchor="middle"
         x="1491.5"
         y="-470.89999"
         font-family="Helvetica, sans-Serif"
         font-size="12px"
         id="text344">NGSI-LD Context Broker</text>
    </g>
    <!-- updater&#45;&gt;broker -->
    <g
       id="edge21"
       class="edge">
      <title
         id="title347">updater-&gt;broker</title>
      <path
         fill="none"
         stroke="#475569"
         stroke-width="1.3"
         d="m 1359.56,-474 c 0,0 19.58,0 31.11,0"
         id="path349" />
      <polygon
         fill="#475569"
         stroke="#475569"
         stroke-width="1.3"
         points="1391,-471.38 1391,-476.63 1398.5,-474 "
         id="polygon351" />
    </g>
    <!-- broker&#45;&gt;socketio -->
    <g
       id="edge23"
       class="edge">
      <title
         id="title354">broker-&gt;socketio</title>
      <path
         fill="none"
         stroke="#64748b"
         stroke-width="1.1"
         stroke-dasharray="5, 2"
         d="m 1398.5,-405.67 c -5.7,0 -13.52,0 -23.22,0"
         id="path356" />
      <polygon
         fill="#64748b"
         stroke="#64748b"
         stroke-width="1.1"
         points="1375,-408.29 1375,-403.04 1367.5,-405.67 "
         id="polygon358" />
    </g>
    <!-- broker&#45;&gt;minio -->
    <!-- ork -->
    <g
       id="node21"
       class="node">
      <title
         id="title361">ork</title>
      <path
         fill="#ecfccb"
         stroke="#0f172a"
         stroke-width="1.4"
         d="m 167,-60 c 0,0 -120,0 -120,0 -6,0 -12,6 -12,12 0,0 0,20 0,20 0,6 6,12 12,12 0,0 120,0 120,0 6,0 12,-6 12,-12 0,0 0,-20 0,-20 0,-6 -6,-12 -12,-12"
         id="path363" />
      <text
         text-anchor="middle"
         x="107"
         y="-41.400002"
         font-family="Helvetica, sans-Serif"
         font-size="12px"
         id="text365">Docker Container &amp;</text>
      <text
         text-anchor="middle"
         x="107"
         y="-28.4"
         font-family="Helvetica, sans-Serif"
         font-size="12px"
         id="text367">Kubernetes Cluster</text>
    </g>
    <!-- ork&#45;&gt;notif -->
    <g
       id="edge24"
       class="edge">
      <title
         id="title370">ork-&gt;notif</title>
      <path
         fill="none"
         stroke="#94a3b8"
         stroke-width="1.1"
         stroke-dasharray="5, 2"
         d="m 179.09,-45.33 c 33.65,0 66.41,0 66.41,0 0,0 0,-412.17 0,-412.17 0,0 15.08,0 15.08,0"
         id="path372" />
      <polygon
         fill="#94a3b8"
         stroke="#94a3b8"
         stroke-width="1.1"
         points="260.58,-454.88 260.58,-460.13 268.08,-457.5 "
         id="polygon374" />
    </g>
    <!-- ork&#45;&gt;broker -->
    <g
       id="edge25"
       class="edge">
      <title
         id="title377">ork-&gt;broker</title>
      <path
         fill="none"
         stroke="#94a3b8"
         stroke-width="1.1"
         stroke-dasharray="5, 2"
         d="m 179.46,-30.67 c 274.1,0 1232.04,0 1232.04,0 0,0 0,-417.62 0,-417.62"
         id="path379" />
      <polygon
         fill="#94a3b8"
         stroke="#94a3b8"
         stroke-width="1.1"
         points="1414.13,-448.29 1408.88,-448.29 1411.5,-455.79 "
         id="polygon381" />
    </g>
  </g>
</svg>
