<?xml version="1.0" encoding="UTF-8" standalone="no"?>
<!DOCTYPE svg PUBLIC "-//W3C//DTD SVG 1.1//EN"
 "http://www.w3.org/Graphics/SVG/1.1/DTD/svg11.dtd">
<!-- Generated by graphviz version 2.43.0 (0)
 -->
<!-- Title: IFS Pages: 1 -->
<svg width="1629pt" height="948pt"
 viewBox="0.00 0.00 1628.50 948.00" xmlns="http://www.w3.org/2000/svg" xmlns:xlink="http://www.w3.org/1999/xlink">
<g id="graph0" class="graph" transform="scale(1 1) rotate(0) translate(18 930)">
<title>IFS</title>
<polygon fill="white" stroke="transparent" points="-18,18 -18,-930 1610.5,-930 1610.5,18 -18,18"/>
<text text-anchor="middle" x="796.25" y="-890.4" font-family="Helvetica,sans-Serif" font-size="22.00">Information Fusion System Architecture</text>
<g id="clust1" class="cluster">
<title>cluster_sources</title>
<path fill="#f8fafc" stroke="#cbd5e1" stroke-width="1.2" d="M23.5,-99C23.5,-99 190.5,-99 190.5,-99 196.5,-99 202.5,-105 202.5,-111 202.5,-111 202.5,-860 202.5,-860 202.5,-866 196.5,-872 190.5,-872 190.5,-872 23.5,-872 23.5,-872 17.5,-872 11.5,-866 11.5,-860 11.5,-860 11.5,-111 11.5,-111 11.5,-105 17.5,-99 23.5,-99"/>
<text text-anchor="middle" x="107" y="-856.8" font-family="Helvetica,sans-Serif" font-size="14.00">Data Sources</text>
</g>
<g id="clust3" class="cluster">
<title>cluster_web</title>
<path fill="#f1f5f9" stroke="#cbd5e1" stroke-width="1.2" d="M257.5,-375C257.5,-375 1355.5,-375 1355.5,-375 1361.5,-375 1367.5,-381 1367.5,-387 1367.5,-387 1367.5,-515 1367.5,-515 1367.5,-521 1361.5,-527 1355.5,-527 1355.5,-527 257.5,-527 257.5,-527 251.5,-527 245.5,-521 245.5,-515 245.5,-515 245.5,-387 245.5,-387 245.5,-381 251.5,-375 257.5,-375"/>
<text text-anchor="middle" x="806.5" y="-511.8" font-family="Helvetica,sans-Serif" font-size="14.00">Web App</text>
</g>
<g id="clust5" class="cluster">
<title>cluster_storage</title>
<path fill="#f8fafc" stroke="#cbd5e1" stroke-width="1.2" d="M1410.5,-387C1410.5,-387 1572.5,-387 1572.5,-387 1578.5,-387 1584.5,-393 1584.5,-399 1584.5,-399 1584.5,-526 1584.5,-526 1584.5,-532 1578.5,-538 1572.5,-538 1572.5,-538 1410.5,-538 1410.5,-538 1404.5,-538 1398.5,-532 1398.5,-526 1398.5,-526 1398.5,-399 1398.5,-399 1398.5,-393 1404.5,-387 1410.5,-387"/>
<text text-anchor="middle" x="1491.5" y="-522.8" font-family="Helvetica,sans-Serif" font-size="14.00">Storage &amp;</text>
<text text-anchor="middle" x="1491.5" y="-507.8" font-family="Helvetica,sans-Serif" font-size="14.00">Context Broker</text>
</g>
<g id="clust7" class="cluster">
<title>cluster_orch</title>
<path fill="#f8fafc" stroke="#cbd5e1" stroke-width="1.2" d="M12,-8C12,-8 203,-8 203,-8 209,-8 215,-14 215,-20 215,-20 215,-79 215,-79 215,-85 209,-91 203,-91 203,-91 12,-91 12,-91 6,-91 0,-85 0,-79 0,-79 0,-20 0,-20 0,-14 6,-8 12,-8"/>
<text text-anchor="middle" x="107.5" y="-75.8" font-family="Helvetica,sans-Serif" font-size="14.00">Orchestration &amp; Deployment</text>
</g>
<!-- flood_seg -->
<g id="node1" class="node">
<title>flood_seg</title>
<path fill="#eef2ff" stroke="#0f172a" stroke-width="1.4" d="M168.5,-841C168.5,-841 45.5,-841 45.5,-841 39.5,-841 33.5,-835 33.5,-829 33.5,-829 33.5,-809 33.5,-809 33.5,-803 39.5,-797 45.5,-797 45.5,-797 168.5,-797 168.5,-797 174.5,-797 180.5,-803 180.5,-809 180.5,-809 180.5,-829 180.5,-829 180.5,-835 174.5,-841 168.5,-841"/>
<text text-anchor="middle" x="107" y="-822.4" font-family="Helvetica,sans-Serif" font-size="12.00">TFA&#45;tech&#45;06</text>
<text text-anchor="middle" x="107" y="-809.4" font-family="Helvetica,sans-Serif" font-size="12.00">Flood Segmentation</text>
</g>
<!-- notif -->
<g id="node13" class="node">
<title>notif</title>
<path fill="#e0e7ff" stroke="#0f172a" stroke-width="1.4" d="M409.5,-496C409.5,-496 280.5,-496 280.5,-496 274.5,-496 268.5,-490 268.5,-484 268.5,-484 268.5,-464 268.5,-464 268.5,-458 274.5,-452 280.5,-452 280.5,-452 409.5,-452 409.5,-452 415.5,-452 421.5,-458 421.5,-464 421.5,-464 421.5,-484 421.5,-484 421.5,-490 415.5,-496 409.5,-496"/>
<text text-anchor="middle" x="345" y="-477.4" font-family="Helvetica,sans-Serif" font-size="12.00">Notification Handler /</text>
<text text-anchor="middle" x="345" y="-464.4" font-family="Helvetica,sans-Serif" font-size="12.00">API Endpoint</text>
</g>
<!-- flood_seg&#45;&gt;notif -->
<g id="edge10" class="edge">
<title>flood_seg:e&#45;&gt;notif:w</title>
<path fill="none" stroke="#94a3b8" stroke-width="1.1" d="M181,-819C181,-819 396.5,-819 396.5,-819 396.5,-819 396.5,-629.51 396.5,-534.5"/>
<polygon fill="#94a3b8" stroke="#94a3b8" stroke-width="1.1" points="399.13,-534.5 396.5,-527 393.88,-534.5 399.13,-534.5"/>
</g>
<!-- eo_flood -->
<g id="node2" class="node">
<title>eo_flood</title>
<path fill="#eef2ff" stroke="#0f172a" stroke-width="1.4" d="M156,-772C156,-772 58,-772 58,-772 52,-772 46,-766 46,-760 46,-760 46,-740 46,-740 46,-734 52,-728 58,-728 58,-728 156,-728 156,-728 162,-728 168,-734 168,-740 168,-740 168,-760 168,-760 168,-766 162,-772 156,-772"/>
<text text-anchor="middle" x="107" y="-753.4" font-family="Helvetica,sans-Serif" font-size="12.00">TFA&#45;tech&#45;08</text>
<text text-anchor="middle" x="107" y="-740.4" font-family="Helvetica,sans-Serif" font-size="12.00">EO Flood Extent</text>
</g>
<!-- eo_flood&#45;&gt;notif -->
<g id="edge11" class="edge">
<title>eo_flood:e&#45;&gt;notif:w</title>
<path fill="none" stroke="#94a3b8" stroke-width="1.1" d="M168,-750C168,-750 370.5,-750 370.5,-750 370.5,-750 370.5,-613.15 370.5,-534.85"/>
<polygon fill="#94a3b8" stroke="#94a3b8" stroke-width="1.1" points="373.13,-534.5 370.5,-527 367.88,-534.5 373.13,-534.5"/>
</g>
<!-- eo_burn -->
<g id="node3" class="node">
<title>eo_burn</title>
<path fill="#eef2ff" stroke="#0f172a" stroke-width="1.4" d="M150.5,-703C150.5,-703 63.5,-703 63.5,-703 57.5,-703 51.5,-697 51.5,-691 51.5,-691 51.5,-671 51.5,-671 51.5,-665 57.5,-659 63.5,-659 63.5,-659 150.5,-659 150.5,-659 156.5,-659 162.5,-665 162.5,-671 162.5,-671 162.5,-691 162.5,-691 162.5,-697 156.5,-703 150.5,-703"/>
<text text-anchor="middle" x="107" y="-684.4" font-family="Helvetica,sans-Serif" font-size="12.00">TFA&#45;tech&#45;09</text>
<text text-anchor="middle" x="107" y="-671.4" font-family="Helvetica,sans-Serif" font-size="12.00">EO Burnt Area</text>
</g>
<!-- eo_burn&#45;&gt;notif -->
<g id="edge12" class="edge">
<title>eo_burn:e&#45;&gt;notif:w</title>
<path fill="none" stroke="#94a3b8" stroke-width="1.1" d="M162,-681C162,-681 345.5,-681 345.5,-681 345.5,-681 345.5,-593.87 345.5,-534.78"/>
<polygon fill="#94a3b8" stroke="#94a3b8" stroke-width="1.1" points="348.13,-534.5 345.5,-527 342.88,-534.5 348.13,-534.5"/>
</g>
<!-- burnt_seg -->
<g id="node4" class="node">
<title>burnt_seg</title>
<path fill="#eef2ff" stroke="#0f172a" stroke-width="1.4" d="M168.5,-634C168.5,-634 45.5,-634 45.5,-634 39.5,-634 33.5,-628 33.5,-622 33.5,-622 33.5,-602 33.5,-602 33.5,-596 39.5,-590 45.5,-590 45.5,-590 168.5,-590 168.5,-590 174.5,-590 180.5,-596 180.5,-602 180.5,-602 180.5,-622 180.5,-622 180.5,-628 174.5,-634 168.5,-634"/>
<text text-anchor="middle" x="107" y="-615.4" font-family="Helvetica,sans-Serif" font-size="12.00">TFA&#45;tech&#45;06</text>
<text text-anchor="middle" x="107" y="-602.4" font-family="Helvetica,sans-Serif" font-size="12.00">Burnt Segmentation</text>
</g>
<!-- burnt_seg&#45;&gt;notif -->
<g id="edge13" class="edge">
<title>burnt_seg:e&#45;&gt;notif:w</title>
<path fill="none" stroke="#94a3b8" stroke-width="1.1" d="M181,-612C181,-612 319.5,-612 319.5,-612 319.5,-612 319.5,-570.73 319.5,-534.61"/>
<polygon fill="#94a3b8" stroke="#94a3b8" stroke-width="1.1" points="322.13,-534.5 319.5,-527 316.88,-534.5 322.13,-534.5"/>
</g>
<!-- fire_seg -->
<g id="node5" class="node">
<title>fire_seg</title>
<path fill="#eef2ff" stroke="#0f172a" stroke-width="1.4" d="M162.5,-565C162.5,-565 51.5,-565 51.5,-565 45.5,-565 39.5,-559 39.5,-553 39.5,-553 39.5,-533 39.5,-533 39.5,-527 45.5,-521 51.5,-521 51.5,-521 162.5,-521 162.5,-521 168.5,-521 174.5,-527 174.5,-533 174.5,-533 174.5,-553 174.5,-553 174.5,-559 168.5,-565 162.5,-565"/>
<text text-anchor="middle" x="107" y="-546.4" font-family="Helvetica,sans-Serif" font-size="12.00">TFA&#45;tech&#45;06</text>
<text text-anchor="middle" x="107" y="-533.4" font-family="Helvetica,sans-Serif" font-size="12.00">Fire Segmentation</text>
</g>
<!-- fire_seg&#45;&gt;notif -->
<g id="edge14" class="edge">
<title>fire_seg:e&#45;&gt;notif:w</title>
<path fill="none" stroke="#94a3b8" stroke-width="1.1" d="M175,-543C175,-543 294.5,-543 294.5,-543 294.5,-543 294.5,-539.76 294.5,-534.76"/>
<polygon fill="#94a3b8" stroke="#94a3b8" stroke-width="1.1" points="297.13,-534.5 294.5,-527 291.88,-534.5 297.13,-534.5"/>
</g>
<!-- pv_detect -->
<g id="node6" class="node">
<title>pv_detect</title>
<path fill="#eef2ff" stroke="#0f172a" stroke-width="1.4" d="M182.5,-496C182.5,-496 31.5,-496 31.5,-496 25.5,-496 19.5,-490 19.5,-484 19.5,-484 19.5,-464 19.5,-464 19.5,-458 25.5,-452 31.5,-452 31.5,-452 182.5,-452 182.5,-452 188.5,-452 194.5,-458 194.5,-464 194.5,-464 194.5,-484 194.5,-484 194.5,-490 188.5,-496 182.5,-496"/>
<text text-anchor="middle" x="107" y="-477.4" font-family="Helvetica,sans-Serif" font-size="12.00">TFA&#45;tech&#45;05</text>
<text text-anchor="middle" x="107" y="-464.4" font-family="Helvetica,sans-Serif" font-size="12.00">Person/Vehicle Detection</text>
</g>
<!-- pv_detect&#45;&gt;notif -->
<g id="edge15" class="edge">
<title>pv_detect:e&#45;&gt;notif:w</title>
<path fill="none" stroke="#94a3b8" stroke-width="1.1" d="M195,-490.5C195,-490.5 218.86,-490.5 237.78,-490.5"/>
<polygon fill="#94a3b8" stroke="#94a3b8" stroke-width="1.1" points="238,-493.13 245.5,-490.5 238,-487.88 238,-493.13"/>
</g>
<!-- hotspot -->
<g id="node7" class="node">
<title>hotspot</title>
<path fill="#eef2ff" stroke="#0f172a" stroke-width="1.4" d="M151.5,-427C151.5,-427 62.5,-427 62.5,-427 56.5,-427 50.5,-421 50.5,-415 50.5,-415 50.5,-395 50.5,-395 50.5,-389 56.5,-383 62.5,-383 62.5,-383 151.5,-383 151.5,-383 157.5,-383 163.5,-389 163.5,-395 163.5,-395 163.5,-415 163.5,-415 163.5,-421 157.5,-427 151.5,-427"/>
<text text-anchor="middle" x="107" y="-408.4" font-family="Helvetica,sans-Serif" font-size="12.00">TFA&#45;tech&#45;11</text>
<text text-anchor="middle" x="107" y="-395.4" font-family="Helvetica,sans-Serif" font-size="12.00">Hotspot Result</text>
</g>
<!-- hotspot&#45;&gt;notif -->
<g id="edge16" class="edge">
<title>hotspot:e&#45;&gt;notif:w</title>
<path fill="none" stroke="#94a3b8" stroke-width="1.1" d="M164,-405C164,-405 203.5,-405 203.5,-405 203.5,-405 203.5,-485 203.5,-485 203.5,-485 222.05,-485 237.98,-485"/>
<polygon fill="#94a3b8" stroke="#94a3b8" stroke-width="1.1" points="238,-487.63 245.5,-485 238,-482.38 238,-487.63"/>
</g>
<!-- arrival -->
<g id="node8" class="node">
<title>arrival</title>
<path fill="#eef2ff" stroke="#0f172a" stroke-width="1.4" d="M173,-358C173,-358 41,-358 41,-358 35,-358 29,-352 29,-346 29,-346 29,-326 29,-326 29,-320 35,-314 41,-314 41,-314 173,-314 173,-314 179,-314 185,-320 185,-326 185,-326 185,-346 185,-346 185,-352 179,-358 173,-358"/>
<text text-anchor="middle" x="107" y="-339.4" font-family="Helvetica,sans-Serif" font-size="12.00">PDM&#45;tech&#45;01</text>
<text text-anchor="middle" x="107" y="-326.4" font-family="Helvetica,sans-Serif" font-size="12.00">Standard Arrival Time</text>
</g>
<!-- arrival&#45;&gt;notif -->
<g id="edge17" class="edge">
<title>arrival:e&#45;&gt;notif:w</title>
<path fill="none" stroke="#94a3b8" stroke-width="1.1" d="M185,-336C185,-336 211.5,-336 211.5,-336 211.5,-336 211.5,-479.5 211.5,-479.5 211.5,-479.5 224.94,-479.5 237.74,-479.5"/>
<polygon fill="#94a3b8" stroke="#94a3b8" stroke-width="1.1" points="238,-482.13 245.5,-479.5 238,-476.88 238,-482.13"/>
</g>
<!-- alert_ngsi -->
<g id="node9" class="node">
<title>alert_ngsi</title>
<path fill="#eef2ff" stroke="#0f172a" stroke-width="1.4" d="M161.5,-289C161.5,-289 52.5,-289 52.5,-289 46.5,-289 40.5,-283 40.5,-277 40.5,-277 40.5,-257 40.5,-257 40.5,-251 46.5,-245 52.5,-245 52.5,-245 161.5,-245 161.5,-245 167.5,-245 173.5,-251 173.5,-257 173.5,-257 173.5,-277 173.5,-277 173.5,-283 167.5,-289 161.5,-289"/>
<text text-anchor="middle" x="107" y="-270.4" font-family="Helvetica,sans-Serif" font-size="12.00">Alert Notifications</text>
<text text-anchor="middle" x="107" y="-257.4" font-family="Helvetica,sans-Serif" font-size="12.00">(NGSI&#45;LD)</text>
</g>
<!-- alert_ngsi&#45;&gt;notif -->
<g id="edge18" class="edge">
<title>alert_ngsi:e&#45;&gt;notif:w</title>
<path fill="none" stroke="#94a3b8" stroke-width="1.1" d="M174,-267C174,-267 220.5,-267 220.5,-267 220.5,-267 220.5,-474 220.5,-474 220.5,-474 228.83,-474 237.89,-474"/>
<polygon fill="#94a3b8" stroke="#94a3b8" stroke-width="1.1" points="238,-476.63 245.5,-474 238,-471.38 238,-476.63"/>
</g>
<!-- flood_calc -->
<g id="node10" class="node">
<title>flood_calc</title>
<path fill="#eef2ff" stroke="#0f172a" stroke-width="1.4" d="M179,-220C179,-220 35,-220 35,-220 29,-220 23,-214 23,-208 23,-208 23,-188 23,-188 23,-182 29,-176 35,-176 35,-176 179,-176 179,-176 185,-176 191,-182 191,-188 191,-188 191,-208 191,-208 191,-214 185,-220 179,-220"/>
<text text-anchor="middle" x="107" y="-201.4" font-family="Helvetica,sans-Serif" font-size="12.00">PDM&#45;tech&#45;02</text>
<text text-anchor="middle" x="107" y="-188.4" font-family="Helvetica,sans-Serif" font-size="12.00">Flood Calculation Result</text>
</g>
<!-- flood_calc&#45;&gt;notif -->
<g id="edge19" class="edge">
<title>flood_calc:e&#45;&gt;notif:w</title>
<path fill="none" stroke="#94a3b8" stroke-width="1.1" d="M191,-198C191,-198 228.5,-198 228.5,-198 228.5,-198 228.5,-468.5 228.5,-468.5 228.5,-468.5 232.6,-468.5 237.87,-468.5"/>
<polygon fill="#94a3b8" stroke="#94a3b8" stroke-width="1.1" points="238,-471.13 245.5,-468.5 238,-465.88 238,-471.13"/>
</g>
<!-- single_post -->
<g id="node11" class="node">
<title>single_post</title>
<path fill="#eef2ff" stroke="#0f172a" stroke-width="1.4" d="M160.5,-151C160.5,-151 53.5,-151 53.5,-151 47.5,-151 41.5,-145 41.5,-139 41.5,-139 41.5,-119 41.5,-119 41.5,-113 47.5,-107 53.5,-107 53.5,-107 160.5,-107 160.5,-107 166.5,-107 172.5,-113 172.5,-119 172.5,-119 172.5,-139 172.5,-139 172.5,-145 166.5,-151 160.5,-151"/>
<text text-anchor="middle" x="107" y="-132.4" font-family="Helvetica,sans-Serif" font-size="12.00">TFA&#45;tech&#45;11</text>
<text text-anchor="middle" x="107" y="-119.4" font-family="Helvetica,sans-Serif" font-size="12.00">Single Post Result</text>
</g>
<!-- single_post&#45;&gt;notif -->
<g id="edge20" class="edge">
<title>single_post:e&#45;&gt;notif:w</title>
<path fill="none" stroke="#94a3b8" stroke-width="1.1" d="M173,-129C173,-129 237.5,-129 237.5,-129 237.5,-129 237.5,-463 237.5,-463 237.5,-463 237.56,-463 237.66,-463"/>
<polygon fill="#94a3b8" stroke="#94a3b8" stroke-width="1.1" points="238,-465.63 245.5,-463 238,-460.38 238,-465.63"/>
</g>
<!-- socketio -->
<g id="node12" class="node">
<title>socketio</title>
<path fill="#e0f2fe" stroke="#0f172a" stroke-width="1.4" d="M424.5,-427C424.5,-427 265.5,-427 265.5,-427 259.5,-427 253.5,-421 253.5,-415 253.5,-415 253.5,-395 253.5,-395 253.5,-389 259.5,-383 265.5,-383 265.5,-383 424.5,-383 424.5,-383 430.5,-383 436.5,-389 436.5,-395 436.5,-395 436.5,-415 436.5,-415 436.5,-421 430.5,-427 424.5,-427"/>
<text text-anchor="middle" x="345" y="-408.4" font-family="Helvetica,sans-Serif" font-size="12.00">Socket.IO</text>
<text text-anchor="middle" x="345" y="-395.4" font-family="Helvetica,sans-Serif" font-size="12.00">Real&#45;Time Communication</text>
</g>
<!-- socketio&#45;&gt;notif -->
<!-- notif&#45;&gt;socketio -->
<g id="edge7" class="edge">
<title>notif&#45;&gt;socketio</title>
<path fill="none" stroke="#64748b" stroke-width="1.2" stroke-dasharray="5,2" d="M370.5,-451.79C370.5,-451.79 370.5,-434.67 370.5,-434.67"/>
<polygon fill="#64748b" stroke="#64748b" stroke-width="1.2" points="373.13,-434.67 370.5,-427.17 367.88,-434.67 373.13,-434.67"/>
</g>
<!-- cache -->
<g id="node14" class="node">
<title>cache</title>
<path fill="#eef2ff" stroke="#0f172a" stroke-width="1.4" d="M591.5,-496C591.5,-496 495.5,-496 495.5,-496 489.5,-496 483.5,-490 483.5,-484 483.5,-484 483.5,-464 483.5,-464 483.5,-458 489.5,-452 495.5,-452 495.5,-452 591.5,-452 591.5,-452 597.5,-452 603.5,-458 603.5,-464 603.5,-464 603.5,-484 603.5,-484 603.5,-490 597.5,-496 591.5,-496"/>
<text text-anchor="middle" x="543.5" y="-477.4" font-family="Helvetica,sans-Serif" font-size="12.00">Global Cache</text>
<text text-anchor="middle" x="543.5" y="-464.4" font-family="Helvetica,sans-Serif" font-size="12.00">&amp; Data Cleanup</text>
</g>
<!-- notif&#45;&gt;cache -->
<g id="edge2" class="edge">
<title>notif&#45;&gt;cache</title>
<path fill="none" stroke="#64748b" stroke-width="1.2" d="M421.75,-481.33C421.75,-481.33 475.77,-481.33 475.77,-481.33"/>
<polygon fill="#64748b" stroke="#64748b" stroke-width="1.2" points="475.77,-483.96 483.27,-481.33 475.77,-478.71 475.77,-483.96"/>
</g>
<!-- cache&#45;&gt;socketio -->
<g id="edge8" class="edge">
<title>cache&#45;&gt;socketio</title>
<path fill="none" stroke="#64748b" stroke-width="1.2" stroke-dasharray="5,2" d="M483.5,-466.67C456.03,-466.67 429.5,-466.67 429.5,-466.67 429.5,-466.67 429.5,-434.76 429.5,-434.76"/>
<polygon fill="#64748b" stroke="#64748b" stroke-width="1.2" points="432.13,-434.76 429.5,-427.26 426.88,-434.76 432.13,-434.76"/>
</g>
<!-- fusion -->
<g id="node15" class="node">
<title>fusion</title>
<path fill="#dbeafe" stroke="#0f172a" stroke-width="1.8" d="M820.5,-496C820.5,-496 662.5,-496 662.5,-496 656.5,-496 650.5,-490 650.5,-484 650.5,-484 650.5,-464 650.5,-464 650.5,-458 656.5,-452 662.5,-452 662.5,-452 820.5,-452 820.5,-452 826.5,-452 832.5,-458 832.5,-464 832.5,-464 832.5,-484 832.5,-484 832.5,-490 826.5,-496 820.5,-496"/>
<text text-anchor="middle" x="741.5" y="-477.4" font-family="Helvetica,sans-Serif" font-size="12.00">Information Fusion Engine</text>
<text text-anchor="middle" x="741.5" y="-464.4" font-family="Helvetica,sans-Serif" font-size="12.00">(PDM&#45;tech&#45;05)</text>
</g>
<!-- cache&#45;&gt;fusion -->
<g id="edge3" class="edge">
<title>cache&#45;&gt;fusion</title>
<path fill="none" stroke="#64748b" stroke-width="1.2" d="M603.71,-474C603.71,-474 642.68,-474 642.68,-474"/>
<polygon fill="#64748b" stroke="#64748b" stroke-width="1.2" points="642.68,-476.63 650.18,-474 642.68,-471.38 642.68,-476.63"/>
</g>
<!-- pipelines -->
<g id="node16" class="node">
<title>pipelines</title>
<path fill="#eef2ff" stroke="#0f172a" stroke-width="1.4" d="M989.5,-496C989.5,-496 891.5,-496 891.5,-496 885.5,-496 879.5,-490 879.5,-484 879.5,-484 879.5,-464 879.5,-464 879.5,-458 885.5,-452 891.5,-452 891.5,-452 989.5,-452 989.5,-452 995.5,-452 1001.5,-458 1001.5,-464 1001.5,-464 1001.5,-484 1001.5,-484 1001.5,-490 995.5,-496 989.5,-496"/>
<text text-anchor="middle" x="940.5" y="-477.4" font-family="Helvetica,sans-Serif" font-size="12.00">Data Processing</text>
<text text-anchor="middle" x="940.5" y="-464.4" font-family="Helvetica,sans-Serif" font-size="12.00">Pipelines</text>
</g>
<!-- fusion&#45;&gt;pipelines -->
<g id="edge4" class="edge">
<title>fusion&#45;&gt;pipelines</title>
<path fill="none" stroke="#64748b" stroke-width="1.2" d="M832.56,-474C832.56,-474 871.88,-474 871.88,-474"/>
<polygon fill="#64748b" stroke="#64748b" stroke-width="1.2" points="871.88,-476.63 879.38,-474 871.88,-471.38 871.88,-476.63"/>
</g>
<!-- occmap -->
<g id="node17" class="node">
<title>occmap</title>
<path fill="#eef2ff" stroke="#0f172a" stroke-width="1.4" d="M1187.5,-496C1187.5,-496 1060.5,-496 1060.5,-496 1054.5,-496 1048.5,-490 1048.5,-484 1048.5,-484 1048.5,-464 1048.5,-464 1048.5,-458 1054.5,-452 1060.5,-452 1060.5,-452 1187.5,-452 1187.5,-452 1193.5,-452 1199.5,-458 1199.5,-464 1199.5,-464 1199.5,-484 1199.5,-484 1199.5,-490 1193.5,-496 1187.5,-496"/>
<text text-anchor="middle" x="1124" y="-477.4" font-family="Helvetica,sans-Serif" font-size="12.00">Occupancy Grid Map</text>
<text text-anchor="middle" x="1124" y="-464.4" font-family="Helvetica,sans-Serif" font-size="12.00">Generator</text>
</g>
<!-- pipelines&#45;&gt;occmap -->
<g id="edge5" class="edge">
<title>pipelines&#45;&gt;occmap</title>
<path fill="none" stroke="#64748b" stroke-width="1.2" d="M1001.6,-474C1001.6,-474 1040.97,-474 1040.97,-474"/>
<polygon fill="#64748b" stroke="#64748b" stroke-width="1.2" points="1040.97,-476.63 1048.47,-474 1040.97,-471.38 1040.97,-476.63"/>
</g>
<!-- updater -->
<g id="node18" class="node">
<title>updater</title>
<path fill="#e0e7ff" stroke="#0f172a" stroke-width="1.4" d="M1347.5,-496C1347.5,-496 1258.5,-496 1258.5,-496 1252.5,-496 1246.5,-490 1246.5,-484 1246.5,-484 1246.5,-464 1246.5,-464 1246.5,-458 1252.5,-452 1258.5,-452 1258.5,-452 1347.5,-452 1347.5,-452 1353.5,-452 1359.5,-458 1359.5,-464 1359.5,-464 1359.5,-484 1359.5,-484 1359.5,-490 1353.5,-496 1347.5,-496"/>
<text text-anchor="middle" x="1303" y="-477.4" font-family="Helvetica,sans-Serif" font-size="12.00">NGSI&#45;LD</text>
<text text-anchor="middle" x="1303" y="-464.4" font-family="Helvetica,sans-Serif" font-size="12.00">Entity Updater</text>
</g>
<!-- occmap&#45;&gt;updater -->
<g id="edge6" class="edge">
<title>occmap&#45;&gt;updater</title>
<path fill="none" stroke="#64748b" stroke-width="1.2" d="M1199.65,-474C1199.65,-474 1238.86,-474 1238.86,-474"/>
<polygon fill="#64748b" stroke="#64748b" stroke-width="1.2" points="1238.86,-476.63 1246.36,-474 1238.86,-471.38 1238.86,-476.63"/>
</g>
<!-- minio -->
<g id="node20" class="node">
<title>minio</title>
<path fill="#fef3c7" stroke="#0f172a" stroke-width="1.4" d="M1557,-431C1557,-431 1426,-431 1426,-431 1420,-431 1414,-425 1414,-419 1414,-419 1414,-407 1414,-407 1414,-401 1420,-395 1426,-395 1426,-395 1557,-395 1557,-395 1563,-395 1569,-401 1569,-407 1569,-407 1569,-419 1569,-419 1569,-425 1563,-431 1557,-431"/>
<text text-anchor="middle" x="1491.5" y="-409.9" font-family="Helvetica,sans-Serif" font-size="12.00">MinIO Object Storage</text>
</g>
<!-- occmap&#45;&gt;minio -->
<g id="edge22" class="edge">
<title>occmap&#45;&gt;minio</title>
<path fill="none" stroke="#475569" stroke-width="1.3" d="M1124.5,-451.87C1124.5,-435.61 1124.5,-416.33 1124.5,-416.33 1124.5,-416.33 1332.44,-416.33 1390.99,-416.33"/>
<polygon fill="#475569" stroke="#475569" stroke-width="1.3" points="1391,-418.96 1398.5,-416.33 1391,-413.71 1391,-418.96"/>
</g>
<!-- broker -->
<g id="node19" class="node">
<title>broker</title>
<path fill="#fef3c7" stroke="#0f172a" stroke-width="1.4" d="M1564.5,-492C1564.5,-492 1418.5,-492 1418.5,-492 1412.5,-492 1406.5,-486 1406.5,-480 1406.5,-480 1406.5,-468 1406.5,-468 1406.5,-462 1412.5,-456 1418.5,-456 1418.5,-456 1564.5,-456 1564.5,-456 1570.5,-456 1576.5,-462 1576.5,-468 1576.5,-468 1576.5,-480 1576.5,-480 1576.5,-486 1570.5,-492 1564.5,-492"/>
<text text-anchor="middle" x="1491.5" y="-470.9" font-family="Helvetica,sans-Serif" font-size="12.00">NGSI&#45;LD Context Broker</text>
</g>
<!-- updater&#45;&gt;broker -->
<g id="edge21" class="edge">
<title>updater&#45;&gt;broker</title>
<path fill="none" stroke="#475569" stroke-width="1.3" d="M1359.56,-474C1359.56,-474 1379.14,-474 1390.67,-474"/>
<polygon fill="#475569" stroke="#475569" stroke-width="1.3" points="1391,-476.63 1398.5,-474 1391,-471.38 1391,-476.63"/>
</g>
<!-- broker&#45;&gt;socketio -->
<g id="edge23" class="edge">
<title>broker&#45;&gt;socketio</title>
<path fill="none" stroke="#64748b" stroke-width="1.1" stroke-dasharray="5,2" d="M1398.5,-405.67C1392.8,-405.67 1384.98,-405.67 1375.28,-405.67"/>
<polygon fill="#64748b" stroke="#64748b" stroke-width="1.1" points="1375,-403.04 1367.5,-405.67 1375,-408.29 1375,-403.04"/>
</g>
<!-- broker&#45;&gt;minio -->
<!-- ork -->
<g id="node21" class="node">
<title>ork</title>
<path fill="#ecfccb" stroke="#0f172a" stroke-width="1.4" d="M167,-60C167,-60 47,-60 47,-60 41,-60 35,-54 35,-48 35,-48 35,-28 35,-28 35,-22 41,-16 47,-16 47,-16 167,-16 167,-16 173,-16 179,-22 179,-28 179,-28 179,-48 179,-48 179,-54 173,-60 167,-60"/>
<text text-anchor="middle" x="107" y="-41.4" font-family="Helvetica,sans-Serif" font-size="12.00">Docker Container &amp;</text>
<text text-anchor="middle" x="107" y="-28.4" font-family="Helvetica,sans-Serif" font-size="12.00">Kubernetes Cluster</text>
</g>
<!-- ork&#45;&gt;notif -->
<g id="edge24" class="edge">
<title>ork&#45;&gt;notif</title>
<path fill="none" stroke="#94a3b8" stroke-width="1.1" stroke-dasharray="5,2" d="M179.09,-45.33C212.74,-45.33 245.5,-45.33 245.5,-45.33 245.5,-45.33 245.5,-457.5 245.5,-457.5 245.5,-457.5 260.58,-457.5 260.58,-457.5"/>
<polygon fill="#94a3b8" stroke="#94a3b8" stroke-width="1.1" points="260.58,-460.13 268.08,-457.5 260.58,-454.88 260.58,-460.13"/>
</g>
<!-- ork&#45;&gt;broker -->
<g id="edge25" class="edge">
<title>ork&#45;&gt;broker</title>
<path fill="none" stroke="#94a3b8" stroke-width="1.1" stroke-dasharray="5,2" d="M179.46,-30.67C453.56,-30.67 1411.5,-30.67 1411.5,-30.67 1411.5,-30.67 1411.5,-448.29 1411.5,-448.29"/>
<polygon fill="#94a3b8" stroke="#94a3b8" stroke-width="1.1" points="1408.88,-448.29 1411.5,-455.79 1414.13,-448.29 1408.88,-448.29"/>
</g>
</g>
</svg>
